<svg width="28" height="28" viewBox="0 0 28 28" fill="none" xmlns="http://www.w3.org/2000/svg">
<path d="M13.9998 6.99999C15.2832 6.99999 16.3332 8.04999 16.3332 9.33332C16.3332 10.6167 15.2832 11.6667 13.9998 11.6667C12.7165 11.6667 11.6665 10.6167 11.6665 9.33332C11.6665 8.04999 12.7165 6.99999 13.9998 6.99999ZM13.9998 18.6667C17.1498 18.6667 20.7665 20.1717 20.9998 21H6.99984C7.26817 20.16 10.8615 18.6667 13.9998 18.6667ZM13.9998 4.66666C11.4215 4.66666 9.33317 6.75499 9.33317 9.33332C9.33317 11.9117 11.4215 14 13.9998 14C16.5782 14 18.6665 11.9117 18.6665 9.33332C18.6665 6.75499 16.5782 4.66666 13.9998 4.66666ZM13.9998 16.3333C10.8848 16.3333 4.6665 17.8967 4.6665 21V23.3333H23.3332V21C23.3332 17.8967 17.1148 16.3333 13.9998 16.3333Z" fill="#B649EA"/>
</svg>
