<svg width="34" height="34" viewBox="0 0 34 34" fill="none" xmlns="http://www.w3.org/2000/svg">
<path d="M0.145927 14.3338C-0.0916571 13.4258 -0.0958745 12.3221 0.567673 11.659C1.20029 11.0255 2.89993 9.93312 4.25795 9.10816C5.43831 8.38544 6.73873 7.88095 8.09725 7.61874C8.43054 7.54418 8.73665 7.37849 8.98151 7.1401C10.6357 5.51553 12.2758 3.87642 13.9019 2.22275C14.7454 1.36824 15.9375 0.232165 16.7346 0.111097C17.5697 -0.011379 18.4385 -0.060651 19.2651 0.111097C21.8546 0.648866 21.3499 3.1364 21.0139 5.17063C21.0106 5.19174 21.0116 5.21331 21.017 5.234C21.0223 5.25469 21.0319 5.27404 21.0451 5.29083C21.0583 5.30763 21.0749 5.3215 21.0937 5.33158C21.1125 5.34166 21.1332 5.34774 21.1545 5.34941C21.3555 5.36067 21.5369 5.37193 21.7168 5.37334C23.4629 5.38179 24.738 5.96038 25.8261 7.22175C26.8298 8.38457 26.8621 9.75574 25.8429 10.9031C25.5723 11.1826 25.282 11.4423 24.9741 11.6802C24.9509 11.6993 24.9337 11.7248 24.9247 11.7536C24.9157 11.7823 24.9153 11.8131 24.9235 11.8421C24.9317 11.8711 24.9482 11.897 24.9709 11.9168C24.9936 11.9365 25.0216 11.9492 25.0514 11.9533C25.0894 11.9533 25.1161 11.9631 25.1372 11.9673C30.9671 13.3188 34.4634 19.7875 32.0876 25.6086C32.0201 25.7719 32.0876 26.0493 32.1944 26.2154C32.7413 27.0981 33.5904 27.8371 33.8814 28.8339C34.0395 29.3858 34.0395 29.9712 33.8814 30.5232C33.6227 31.4227 32.9859 32.2012 32.3575 32.8713C31.8469 33.3783 31.2069 33.7348 30.5074 33.9018C29.9527 34.0327 29.3752 34.0327 28.8205 33.9018C28.2736 33.7751 27.8111 33.4119 27.305 33.1656C27.2179 33.1284 27.1241 33.1092 27.0294 33.1092C26.9347 33.1092 26.841 33.1284 26.7539 33.1656C26.2253 33.426 25.7487 33.9004 25.1653 33.9004H7.61224C7.59151 33.9002 7.57102 33.8959 7.55197 33.8877C7.53292 33.8795 7.51569 33.8676 7.50129 33.8527C7.4869 33.8377 7.47562 33.8201 7.46811 33.8007C7.46061 33.7813 7.45704 33.7607 7.4576 33.7399C7.4815 33.1177 7.51383 32.4955 7.52086 31.8732C7.53351 30.747 7.78797 29.6377 8.67083 28.9577C9.59305 28.2538 9.71254 27.4092 9.63522 26.4069C9.60148 25.9648 9.64646 25.5171 9.62115 25.0737C9.60342 24.8686 9.54663 24.6689 9.45386 24.4852C8.89153 23.3083 8.26595 22.161 7.78094 20.9546C7.5546 20.3914 7.32826 20.1704 6.7097 20.1451C3.65485 20.017 1.37602 17.8927 0.35961 14.9856C0.286507 14.7674 0.206377 14.5689 0.145927 14.3338ZM17.7693 23.3534C17.8052 23.3573 17.8387 23.3734 17.8643 23.399C17.8899 23.4246 17.9059 23.4582 17.9099 23.4942C18.0772 24.7612 18.1137 25.9944 18.4638 27.1375C18.7955 28.2201 19.618 28.9225 20.6344 29.3899C20.6665 29.4046 20.6926 29.4299 20.7083 29.4616C20.7241 29.4932 20.7286 29.5293 20.721 29.5638C20.7134 29.5984 20.6943 29.6293 20.6668 29.6514C20.6393 29.6736 20.605 29.6856 20.5697 29.6856H20.5627C19.3916 29.6856 18.2192 29.6658 17.0481 29.6968C15.8363 29.7278 14.9619 30.571 14.9984 31.6424C14.9995 31.6828 15.0162 31.7213 15.0451 31.7496C15.0739 31.778 15.1126 31.794 15.1531 31.7944H15.766C18.3893 31.7944 21.0139 31.8155 23.6386 31.7775C24.274 31.7691 25.0022 31.7226 25.5168 31.4101C25.9751 31.1285 26.2492 30.5471 26.6063 30.0305C26.6186 30.0126 26.6345 29.9975 26.653 29.9862C26.6716 29.9749 26.6923 29.9677 26.7138 29.965C26.7354 29.9624 26.7572 29.9643 26.7779 29.9707C26.7987 29.9772 26.8178 29.9879 26.834 30.0023C27.2811 30.3923 27.7844 30.847 28.3115 31.2693C29.231 32.0056 30.4203 31.945 31.1682 31.1496C31.9625 30.305 31.9765 29.1309 31.1682 28.2285C30.7183 27.7186 30.24 27.2345 29.7356 26.7785C29.3772 26.4575 29.342 26.2267 29.5951 25.7818C31.0599 23.1971 31.1499 20.5364 29.6991 17.9377C28.0993 15.0743 25.5449 13.8045 22.3003 13.8298C20.0285 13.8481 17.7566 13.8397 15.4834 13.8298C15.2543 13.8298 14.9211 13.8101 14.8143 13.6102C14.3349 12.7402 13.8991 11.8477 13.4084 10.8622C13.3963 10.8384 13.3905 10.8119 13.3917 10.7851C13.3928 10.7584 13.4009 10.7324 13.415 10.7098C13.4292 10.6871 13.449 10.6684 13.4725 10.6557C13.4959 10.6429 13.5223 10.6365 13.549 10.637H14.2758C16.9469 10.637 19.618 10.637 22.289 10.637C23.0636 10.637 24.2796 9.76559 24.3724 9.18418C24.4371 8.78156 23.6386 7.84961 22.9863 7.63563C22.6952 7.55007 22.3926 7.51064 22.0894 7.51879C20.356 7.50753 18.6226 7.51879 16.8878 7.51034C16.7937 7.51034 16.6981 7.5033 16.6067 7.49485C16.559 7.48696 16.5144 7.46628 16.4775 7.435C16.4407 7.40371 16.413 7.36301 16.3974 7.31722C16.3818 7.27143 16.3789 7.22226 16.3891 7.17496C16.3992 7.12765 16.4219 7.08398 16.4549 7.04859C17.1578 6.37568 17.8705 5.70417 18.572 5.02422C19.2735 4.34426 19.1709 3.62489 19.0767 2.78727C19.0682 2.65136 19.0109 2.52314 18.9152 2.42633C18.8196 2.32953 18.6922 2.27071 18.5566 2.26076C17.654 2.16503 16.8274 2.24809 16.1146 2.98717C14.0973 5.07912 12.0307 7.12461 9.95574 9.15884C9.68301 9.42491 9.25283 9.55724 8.87326 9.68394C7.92433 9.99647 6.90511 10.1612 6.01804 10.5877C4.86105 11.1396 3.78419 11.8674 2.70311 12.5656C2.59225 12.6535 2.50106 12.7637 2.43543 12.889C2.3698 13.0144 2.3312 13.1522 2.32213 13.2935C2.28699 15.8767 4.20312 17.9138 6.78281 18.0658C7.34513 18.0982 7.90746 18.0348 8.46979 18.1024C8.60279 18.1257 8.72921 18.1775 8.84034 18.2543C8.95148 18.3311 9.04471 18.431 9.11366 18.5473C9.45808 19.3412 9.72519 20.1676 10.0218 20.9827C10.3761 21.9527 10.698 22.9395 11.5682 23.6138C11.6205 23.6585 11.6635 23.7131 11.6946 23.7744C11.7258 23.8358 11.7444 23.9028 11.7496 23.9714C11.7608 25.8254 11.758 27.6795 11.758 29.5124C11.7575 29.5458 11.7463 29.5783 11.7261 29.6049C11.7059 29.6315 11.6776 29.6509 11.6455 29.6602C10.2861 30.0656 9.76315 30.6006 9.73081 31.6438C9.73025 31.6648 9.73385 31.6857 9.74141 31.7053C9.74897 31.7249 9.76033 31.7428 9.77484 31.758C9.78935 31.7732 9.80672 31.7853 9.82594 31.7938C9.84517 31.8022 9.86587 31.8067 9.88686 31.8071C10.5982 31.8071 11.3138 31.7761 12.0251 31.8183C12.5973 31.8521 12.8911 31.6775 13.0921 31.1144C13.8077 29.0802 14.5865 27.0699 15.3414 25.0498C15.9783 23.2872 15.9923 23.2464 17.7693 23.3534Z" fill="#C58200"/>
</svg>
