<?xml version="1.0" encoding="utf-8"?>
<!-- Generator: Adobe Illustrator 22.0.1, SVG Export Plug-In . SVG Version: 6.00 Build 0)  -->
<svg version="1.1" id="Lager_1" xmlns="http://www.w3.org/2000/svg" xmlns:xlink="http://www.w3.org/1999/xlink" x="0px" y="0px"
	 viewBox="0 0 375 310" style="enable-background:new 0 0 375 310;" xml:space="preserve">
<style type="text/css">
	
		.st0{opacity:0.41;fill:none;stroke:#C8C8C8;stroke-width:3;stroke-linecap:round;stroke-linejoin:round;enable-background:new    ;}
	
		.st1{opacity:0.28;fill:none;stroke:#C8C8C8;stroke-width:3;stroke-linecap:round;stroke-linejoin:round;enable-background:new    ;}
	.st2{fill:none;stroke:#C8C8C8;stroke-width:3;stroke-linecap:round;stroke-linejoin:round;}
</style>
<path class="st0" d="M50.9,228.7c10.8-4.3,29.4-7.5,52.6-8.3c27.4-0.9,50.8,2.4,59.6,7.6"/>
<path class="st1" d="M61.4,235.7c11.3-3,27.1-5.2,44.7-5.7c12.2-0.5,24.4,0,36.6,1.5"/>
<path class="st2" d="M114.7,209.7c14.3,0.1,26.9,1.2,36.3,3.3"/>
<path class="st2" d="M55.3,216.9c8.7-2.8,21.3-5.1,35.8-6.3"/>
<path class="st2" d="M49,219.4c1.1-0.6,2.4-1.1,3.8-1.6"/>
<path class="st2" d="M42.8,228.1c-0.4-0.6-0.6-1.2-0.6-1.9c0-0.1,0-0.2,0-0.3"/>
<path class="st2" d="M127.7,236.9c-6.9,0.8-14.4,1.4-22.2,1.6c-23,0.7-43.2-1.4-54.3-5.3"/>
<path class="st2" d="M161.3,216.1c4.1,1.8,6.4,3.8,6.5,6.1c0.1,2.9-3.7,5.8-10.2,8.3"/>
<path class="st2" d="M314.5,272.7c0.3-0.1,0.6-0.2,0.9-0.3c13.4-5.4,16.5-8.9,19.6-12.2c10.7-11.2,15.9-18.3,10.3-64.9
	c-4.1-33.8-31.7-48.6-31.7-48.6s0.2-15.1-2-26.1c-1.6-8.1-4-16.1-7-23.9c-1-2.6-4.2-6.9-1.8-11.5c2.3-4.4,5.1-12.8,6.4-19.6
	c1.2-6.1,6-16.2,8.1-25c2-8.2,2.2-27.8-3.8-30.3c-3.2-1.4-7.9,3.9-13.2,11.2c-7.5,10.3-18.7,32.8-18.7,32.8"/>
<path class="st2" d="M232.5,219.8c2.6,5.6,5.7,10.9,9.2,15.9"/>
<path class="st2" d="M261.4,71.6c-16.5,5.9-53,43.3-54.4,56.4c-1.4,13.1,1.4,13.8,1.4,13.8s-0.3,10.7,6.9,14.5
	c7.2,3.8,16,3.9,17.4,7s-3,8-4,10.6c-2,5.3-2.6,8.9-2.6,11"/>
<path class="st2" d="M265.5,86c0,0-6.5-24.1-10.7-34.1c-4.2-10-14.5-31.4,0-37.9c14.5-6.5,18.9,15.5,22,22.4
	c3.1,6.9,6.9,24.8,6.2,33.8"/>
<path class="st2" d="M249.2,182.9c-5.8,10.3-2.8,14.9-2.8,14.9s-12.4-6.9-23.3-15.2c-10.6-8.1-20.3-17.3-19.3-17.7
	c1.9-0.8,5.2,0,4.9-0.9c-0.4-1.3-1.8-3.5-7.9-3.5c-7.9,0-10.7,7.7-11.1,11.1c-1.1,9,12.2,22.8,19.4,28.8c7.2,6,23.9,22.9,54.1,34.5
	c30.3,11.6,39.5-7.6,45.5-19.6c8.1-16.3,1-22.3,1-22.3"/>
<path class="st2" d="M336.6,259c0,0,1.9,7.2,4.4,11.5c2.5,4.3,7.3,11,6.5,16.3c-0.9,5.2-3.7,10.2-11.4,10.7
	c-7.6,0.5-14.6-2.1-14.6-2.1"/>
<path class="st2" d="M249.9,229.3c-29.4,18.8-1.5,46.3,3.4,49c3.7,1.9,7.5,3.6,11.4,5c0,0-37.4-1.7-48.8,3.2
	c-11.5,4.9-9.2,8.5-4.9,9.9c4.3,1.4,85.5,17.4,99.4,8.5c14-8.8,16.4-14.6,7.1-28c-9.3-13.4-9.6-10.5-11.4-21.2
	c-1.1-6.5-1.6-7.9-1.6-7.9"/>
<path class="st2" d="M313.6,146.7c-1.9-1.2-6.6-1-13.5,0c-6.8,1-10.9,3.8-10.9,3.8"/>
<path class="st2" d="M211.4,171.8c2.5-0.7,4.7-1.3,4.9-1.4c0.5-0.3-1.2-5.8-1.4-6.2c-0.2-0.4-10.7,0.9-10.7,0.9"/>
<path class="st2" d="M190.9,167.5c0,0-9.4,3.5-9.7,4.4s2.1,7.8,3.1,8.5c1.1,0.7,6.8-2,6.8-2"/>
<path class="st2" d="M44,222.6c0.6-0.2,1.2-0.4,1.8-0.7c3.5-1.9,3.8-3.8,3.8-3.8s-2.4-9-5.8-9.8c-3.4-0.8-10.8-1.9-11.5,2.2
	c-0.4,1.9-1,4.4-1.3,6.6"/>
<path class="st2" d="M30.6,216.8c0,0-3.4-2.8-6.4-1.2c-3.1,1.7-6.2,6.7-4.2,9.3c2.1,2.6,5.7,4.9,9.1,4.4c3.3-0.6,6.3-5.1,5.6-7.3
	C33.9,219.8,30.6,216.8,30.6,216.8z"/>
<path class="st2" d="M40.5,227.9c-0.1-2-1.7-3.6-3.8-3.5c-2,0.1-3.6,1.7-3.5,3.8c0.1,2,1.7,3.6,3.8,3.5
	C39,231.6,40.5,229.9,40.5,227.9z"/>
<path class="st2" d="M40,226l1.6,0c0.7,0,1.3-0.3,1.7-0.8c0.5-0.5,0.7-1.1,0.7-1.8c0-0.7-0.3-1.3-0.8-1.7c-0.5-0.5-1.1-0.7-1.8-0.7
	l-3.4,0.1c-0.7,0-1.3,0.3-1.7,0.8c-0.5,0.5-0.7,1.1-0.7,1.8l0,0c0,0.3,0.1,0.5,0.2,0.8"/>
<path class="st2" d="M21,252.6l-3.4,0.1c-1.4,0-2.5,1.2-2.4,2.6l0,0c0,1.4,1.2,2.5,2.6,2.4l3.4-0.1c1.4,0,2.5-1.2,2.4-2.6l0,0
	C23.5,253.7,22.4,252.6,21,252.6z"/>
<path class="st2" d="M46.9,235.5c-1.1-0.1-3.2,0-4.3-0.2c-2.2-0.3-2.3-2.5-1.9-4.6c0.5-2.2,2.2-2.9,4.4-2.6c1.1,0.1,3.4,0,4.5,0.1
	c2.2,0.2,2.1,2.5,1.6,4.7C50.7,235,49.1,235.7,46.9,235.5z"/>
<path class="st2" d="M53.7,217.9l-2.7-0.4c-0.8,0-1.5-0.3-2.1-0.8c-0.6-0.5-0.9-1.3-0.9-2l0,0c-0.1-1.6,1-3.2,2.6-3.3l2.9,0.5
	c1.6,0,3.6,0.9,2.8,2.3c0,0-0.5,0.8-0.5,0.9C55.3,216.6,55.3,217.8,53.7,217.9z"/>
<path class="st2" d="M69.1,213.1l-5.5,1c-3.3,0.1-5.5-1.3-5.6-4.6v-0.1c-0.1-3.3,2.3-4.7,5.6-4.8l6.4-0.3c3.3-0.1,8.9,2.3,6.5,4.6
	c-0.4,0.4-1.4,1.3-1.8,1.8C72.7,213.2,72.4,213,69.1,213.1z"/>
<path class="st2" d="M105.4,212.8l-9.5-0.4c-3.3,0.1-5.8-1.6-6-4.9l0.6-3.8c-0.1-3.3,2.2-4.7,5.5-6.1l11.1-2.4
	c3.3-0.1,5.6,2.6,5.7,5.9l2,7.5C115,212,108.7,212.7,105.4,212.8z"/>
<path class="st2" d="M85,208.8l-3.3,0.1c-1.3,0-2-0.7-2-2c0-1.3,0.5-2.9,1.9-2.9l4-0.3c1.3,0,1.4,1.2,1.4,2.5v0.7
	C87,208.3,86.3,208.8,85,208.8z"/>
<path class="st2" d="M121,207.9l-1.4,0c-1.1,0-1.8-1.1-1.9-2.2l0-0.7c0-1.1,1.4-1.2,2.5-1.2l1.1,0c1.1,0,0.9,0.9,1,1.9
	C122.2,206.7,122.1,207.9,121,207.9z"/>
<path class="st2" d="M150.7,209.2h-0.1l-0.9-1.2c-2,0.1-4.3,0.9-4.3-1.1l0-1.2c-0.1-2,0.6-2.8,2.7-2.9l2.1-0.4
	c1.7-0.1,2.3,0.6,2.6,2"/>
<path class="st2" d="M167.6,191.6l-0.9-1.2c-2,0.1-4.3,0.9-4.3-1.1l0-1.2c-0.1-2,0.6-2.8,2.7-2.9l2.1-0.4c2-0.1,2.6,1,2.7,3
	C169.7,189.8,169.6,191.5,167.6,191.6z"/>
<path class="st2" d="M171.4,212.4l-1.9,0.1c-2.5,0.1-4.4,2.2-4.3,4.6c0.1,2.5,2.2,4.4,4.6,4.3l1.9-0.1c2.5-0.1,4.4-2.2,4.3-4.6
	C175.9,214.3,173.8,212.3,171.4,212.4z"/>
<path class="st2" d="M168.1,205.1c0.5-0.9,1.2-1.7,2.1-2.3c0.9-0.6,1.9-0.9,3-0.9l2.2-0.1c1.6-0.1,3.1,0.5,4.3,1.6
	c1.2,1.1,1.8,2.6,1.9,4.2l0.1,3.5c0.1,1.6-0.5,3.1-1.6,4.3c-1.1,1.2-2.5,1.9-4.1,2"/>
<path class="st2" d="M240.8,112.9c2.4-3.4,2.3-7.7-0.2-9.5c-2.6-1.9-6.6-0.6-9.1,2.8c-2.4,3.4-2.3,7.7,0.2,9.5
	C234.3,117.5,238.3,116.3,240.8,112.9z"/>
<path class="st2" d="M169.2,212.4c-0.1-2.2-0.7-8.9-3.3-10.2c-3.1-1.6-10-4.4-11.7-0.6c-1.7,3.7-5.2,9.6-3.3,11.4
	c1.9,1.8,9.9,3.9,13.7,2.9c0.2-0.1,0.4-0.1,0.6-0.2"/>
<path class="st2" d="M163.1,235.9l-2.7-0.4c-0.4,0-0.8,0-1.1-0.2c-0.4-0.1-0.7-0.3-1-0.6c-0.3-0.3-0.5-0.6-0.7-0.9
	c-0.2-0.3-0.2-0.7-0.3-1.1l0,0c-0.1-1.6,1-3.2,2.6-3.3l2.9,0.5c1.6-0.1,3.6,0.9,2.8,2.3l-0.5,0.9
	C164.6,234.7,164.7,235.9,163.1,235.9z"/>
<path class="st2" d="M157.8,231c-1-2.1-3.8-4.7-3.8-4.7s-3.4-2.9-6.4-1.2c-2.4,1.3-4.9,4.8-4.8,7.4"/>
<path class="st2" d="M148.8,238.4c1.2,0.5,2.4,0.6,3.7,0.4c2.3-0.4,4.4-2.6,5.3-4.7"/>
<path class="st2" d="M140.7,241.3l-8.3-0.1c-2.9,0.1-5.1-0.7-5.1-2.3l0.6-1.9c-0.1-1.6,1.9-2.3,4.9-3l9.7-1.3
	c2.9-0.1,4.8,1.2,4.9,2.8l1.7,3.7C149.1,240.8,143.6,241.2,140.7,241.3z"/>
<path class="st2" d="M195.9,247.5l-6.9-0.1c-2.4,0.1-4.2-0.7-4.3-2.2l0.5-1.8c-0.1-1.5,1.6-2.2,4.1-2.9l8-1.2c2.4-0.1,4,1.2,4.1,2.7
	l1.4,3.5C202.8,247,198.3,247.4,195.9,247.5z"/>
<path class="st2" d="M96.1,261.3l-7.7-0.1c-2.7,0.1-4.7-0.7-4.8-2.3l0.5-1.9c-0.1-1.6,1.8-2.3,4.5-3l9-1.3c2.7-0.1,4.5,1.2,4.6,2.8
	l1.6,3.7C103.8,260.8,98.7,261.2,96.1,261.3z"/>
<path class="st2" d="M-1,143.7c0,0,43.2-4.9,62.4-8s29.9-8.5,51.2-7.6c21.4,0.9,52.1,8.4,62.8,7.8c10.7-0.6,31.2,0,31.2,0"/>
<path class="st2" d="M313.6,135.8c0,0,14-3.7,24.3-3.3c10.4,0.4,31.6,3,37,3.3"/>
<path class="st2" d="M5.1,177.3c6.5-0.6,21.7-8.3,33-9.1c11.3-0.7,41.9,7.2,54.6,7.1c12.8-0.1,51.2-5.5,57.7-7.1
	c6.5-1.6,18.4,1.7,24,2"/>
<path class="st2" d="M338,158c4,0,13.5-2.4,15.9-1.2c2.4,1.2,12.8,0.7,14,1.2"/>
<path class="st2" d="M13.8,279c13-3.5,30.9-9.5,42-4.1c11.1,5.4,30.8,2.9,41,4.1c10.2,1.2,24.9-6.9,33.6-8.9
	c8.7-2,12.8,4.3,22.1,4.5c9.3,0.2,25.8,1.8,37.9,4.4c3.4,0.7,8.2,2,13.6,3.4"/>
<path class="st2" d="M45.6,191.7l-4.1-0.6c-2.4-0.7-3.6-2.2-2.9-4.6v-0.1c0.7-2.4,2.8-2.8,5.1-2.1l4.6,1.3c2.4,0.7,5.8,3.7,3.5,4.8
	c-0.4,0.2-1.3,0.6-1.7,0.9C48.1,192.6,48,192.4,45.6,191.7z"/>
<path class="st2" d="M66.9,192.7l-6.2-0.2c-2.1,0.1-3.8-0.7-3.8-2.3l0.4-1.8c-0.1-1.6,1.4-2.3,3.6-3l7.2-1.2
	c2.1-0.1,3.6,1.2,3.7,2.8l1.3,3.6C73.1,192.3,69,192.7,66.9,192.7z"/>
<path class="st2" d="M202,193.9l20,63.5l6-2l-17.3-53.5"/>
<path class="st2" d="M222,257.5l-7,2.2c0,0,3.6,11.9,11.1,18.3c0,0,5.6-0.8,8.8-1.1c2.4-0.2,4.9-0.2,7.3,0c0.8-2.8,0.7-6.5,0.3-10"
	/>
<path class="st2" d="M236.1,252.7l-8.2,2.7"/>
<path class="st2" d="M242.8,272.7c2,0.4,2.4-0.1,2.5,2l0.1,0.6c-1,1.5-2.8,1.5-2.8,1.8"/>
</svg>
