<svg width="28" height="28" viewBox="0 0 28 28" fill="none" xmlns="http://www.w3.org/2000/svg">
<g clip-path="url(#clip0)">
<path d="M10.4802 11.9373C10.6423 12.509 10.2632 13.1203 9.62967 13.3012C8.99733 13.4808 8.35333 13.1623 8.18883 12.5895C8.0255 12.0167 8.407 11.4065 9.03933 11.2268C9.67283 11.046 10.3157 11.3645 10.4802 11.9373V11.9373ZM24.5 24.5152C24.5 26.446 22.9635 28 20.6722 28H8.09433C4.51267 28 3.829 23.4792 6.61733 22.4583C5.88233 21.5343 5.677 20.2382 6.11917 18.6048C6.46683 17.3133 6.14717 17.0975 5.29317 16.5235C4.60717 16.0615 3.5 15.3183 3.5 13.7562C3.5 11.627 5.159 8.80833 7.99167 7.61833C9.59583 6.944 10.1092 5.9885 10.8173 4.66667C11.1335 4.07633 11.4917 3.40783 11.9782 2.73117C13.5987 0.473667 15.127 0 16.1245 0C16.9762 0 17.7672 0.345333 18.3528 0.971833C18.6713 1.3125 18.9105 1.71733 19.0575 2.15133C20.0713 2.36017 20.8822 2.97033 21.3022 3.87217C21.8493 5.04817 21.623 6.50183 20.7107 7.66733C20.2148 8.30083 19.5452 8.89233 18.837 9.51767C17.871 10.3717 16.5468 11.5407 16.5993 12.2512C16.6238 12.5872 17.0368 13.0328 17.7298 13.4762C20.7947 15.4373 22.4677 18.0367 22.8317 21.4083C23.898 22.2145 24.5 23.3438 24.5 24.5152V24.5152ZM21.1913 23.093C20.8577 22.8993 20.6395 22.5447 20.6162 22.1503C20.4458 19.383 18.9128 16.8047 16.373 15.3405C15.0395 14.5717 14.4177 13.5287 14.336 12.4297C14.1948 10.5408 15.8737 9.05683 17.3577 7.74783C17.9842 7.19367 18.578 6.66983 18.9432 6.20317C19.8182 5.08317 19.0843 4.24433 18.1685 4.515C16.9178 4.88483 15.309 6.8635 14.511 7.7105C15.2168 6.78533 16.5048 4.84517 16.8618 3.68783C17.2048 2.57017 16.352 1.85617 15.12 2.72767C14.1097 3.44283 13.3887 4.70517 12.8077 5.79133C12.0155 7.266 11.1988 8.79083 8.8515 9.77783C6.92883 10.5863 4.7495 13.3688 6.53683 14.5693C7.31617 15.0932 8.52017 15.9028 8.52017 17.7613C8.52017 18.9292 7.4025 20.7258 9.317 23.0953C6.61733 23.6612 6.92767 25.6667 8.0675 25.6667H10.5688C9.98667 23.8222 10.885 21.5588 13.1262 21.5588C13.0328 20.3828 13.2242 17.7672 16.772 16.5515C12.9325 19.4192 15.7943 23.6903 17.234 24.402C15.792 23.8443 14.8202 23.5713 14.1645 23.5095C12.3072 23.3368 12.3585 25.6667 13.7398 25.6667H20.6722C22.4817 25.6667 22.7885 24.0182 21.1913 23.093V23.093Z" fill="#B649EA"/>
</g>
<defs>
<clipPath id="clip0">
<rect width="28" height="28" fill="white"/>
</clipPath>
</defs>
</svg>
